<svg width="17" height="15" viewBox="0 0 17 15" fill="none" xmlns="http://www.w3.org/2000/svg">
<path fill-rule="evenodd" clip-rule="evenodd" d="M15.1223 0.674001C15.0105 0.715996 12.2082 1.80989 8.89507 3.10487C5.58194 4.39983 2.42058 5.63535 1.86983 5.85043C0.735616 6.29343 0.526111 6.39271 0.352968 6.56941C0.0925799 6.83514 0.167808 7.11089 0.555526 7.31208C0.607159 7.33888 1.31829 7.57213 2.13581 7.83045C2.95334 8.08874 3.79965 8.35721 4.01648 8.42702L4.41077 8.55393L5.88523 7.6108C10.6235 4.58003 12.9647 3.09507 13.0564 3.06246C13.2002 3.01127 13.3252 3.01629 13.3832 3.07559C13.424 3.1172 13.4257 3.13809 13.3933 3.19924C13.367 3.2489 7.04115 9.07587 6.49162 9.55668C6.48636 9.56128 6.42688 10.3678 6.35947 11.349C6.29207 12.3301 6.23248 13.1883 6.22707 13.256L6.21725 13.3792L6.35919 13.3596C6.4373 13.3489 6.56081 13.3078 6.63369 13.2684C6.7066 13.229 7.19724 12.7754 7.72406 12.2605C8.25084 11.7456 8.7003 11.317 8.72283 11.3082C8.74539 11.2994 9.58395 11.9056 10.5863 12.6555C11.5887 13.4053 12.4878 14.0559 12.5843 14.1013C12.8336 14.2185 13.1023 14.2324 13.2938 14.1378C13.4763 14.0476 13.6526 13.7837 13.724 13.4937C13.7513 13.3829 13.9788 12.3079 14.2297 11.1048C14.4805 9.9018 14.7274 8.72347 14.7783 8.48635C14.8293 8.24924 14.983 7.51634 15.1198 6.85768C15.2567 6.19903 15.5557 4.77634 15.7842 3.69615C16.1521 1.95714 16.1998 1.69741 16.2001 1.42878C16.2003 1.1664 16.1896 1.10381 16.1207 0.965725C16.0721 0.868324 15.9893 0.768879 15.9083 0.710758C15.7231 0.577846 15.4166 0.563507 15.1223 0.674001Z" fill="white"/>
</svg>
