<svg width="20" height="11" viewBox="0 0 20 11" fill="none" xmlns="http://www.w3.org/2000/svg">
<path fill-rule="evenodd" clip-rule="evenodd" d="M19.9166 10.6283C19.6851 10.8767 19.0686 10.9318 19.0686 10.9318H15.7829C15.7829 10.9318 15.3235 11.0341 14.5109 10.2236C13.9527 9.66676 13.379 8.84531 12.9211 8.50385C12.648 8.30026 12.3911 8.40269 12.3911 8.40269C12.3911 8.40269 11.9116 8.42462 11.8611 8.90852C11.7723 9.75843 11.6491 10.2236 11.6491 10.2236C11.6491 10.2236 11.5907 10.5829 11.4372 10.7294C11.2731 10.886 11.0132 10.9318 11.0132 10.9318C11.0132 10.9318 6.47836 11.9074 2.9577 6.48061C0.416995 2.56413 0.0958994 1.42252 0.0958994 1.42252C0.0958994 1.42252 -0.1196 1.14582 0.0958994 0.815529C0.323414 0.466854 0.62588 0.512054 0.62588 0.512054H3.59367C3.59367 0.512054 3.92181 0.545786 4.12365 0.714371C4.34486 0.899093 4.44165 1.2202 4.44165 1.2202C4.44165 1.2202 5.09222 2.72162 5.81958 3.85042C6.82467 5.41016 7.30349 5.26671 7.30349 5.26671C7.30349 5.26671 8.1714 5.03623 7.62146 1.52367C7.54537 1.03776 6.56153 0.916687 6.56153 0.916687C6.56153 0.916687 6.55241 0.497262 6.77351 0.3097C7.02709 0.0944965 7.30349 0.107384 7.30349 0.107384C7.30349 0.107384 7.74361 0.0340182 9.31735 0.00622589C10.1129 -0.00778236 10.6952 0.00622589 10.6952 0.00622589C10.6952 0.00622589 11.0825 -0.00606402 11.5432 0.309738C11.7661 0.462521 11.7552 0.815566 11.7552 0.815566C11.7552 0.815566 11.6617 3.35057 11.7552 4.65976C11.7954 5.22286 12.0732 5.26675 12.0732 5.26675C12.0732 5.26675 12.3715 5.48722 13.557 3.85046C14.3073 2.81471 14.935 1.32139 14.935 1.32139C14.935 1.32139 15.0903 0.895507 15.2529 0.714408C15.4081 0.54164 15.6769 0.512092 15.6769 0.512092H19.4926C19.4926 0.512092 19.7279 0.503836 19.8106 0.714408C19.8866 0.907759 19.8106 1.32139 19.8106 1.32139C19.8106 1.32139 19.7689 1.77952 19.3867 2.33305C18.484 3.64008 16.7368 5.77254 16.7368 5.77254C16.7368 5.77254 16.6057 6.06212 16.6308 6.27837C16.6586 6.51636 16.8428 6.683 16.8428 6.683C16.8428 6.683 18.1597 7.82029 19.0687 8.80744C19.5597 9.3408 19.9166 10.0214 19.9166 10.0214C19.9166 10.0214 20.1045 10.4265 19.9166 10.6283Z" fill="white"/>
</svg>
